<svg xmlns="http://www.w3.org/2000/svg" xmlns:xlink="http://www.w3.org/1999/xlink" width="500" zoomAndPan="magnify" viewBox="0 0 375 374.999991" height="500" preserveAspectRatio="xMidYMid meet" version="1.0"><defs><clipPath id="id1"><path d="M 112.5 112.5 L 262.5 112.5 L 262.5 262.5 L 112.5 262.5 Z M 112.5 112.5 " clip-rule="nonzero"/></clipPath></defs><path fill="#ff1616" d="M 154.558594 187.515625 L 154.558594 205.507812 L 172.773438 205.507812 L 172.773438 187.515625 L 154.558594 187.515625 " fill-opacity="1" fill-rule="nonzero"/><g clip-path="url(#id1)"><path fill="#ffffff" d="M 196.621094 243.574219 L 196.621094 131.457031 C 223.625 135.828125 244.308594 159.300781 244.308594 187.515625 C 244.308594 215.730469 223.625 239.203125 196.621094 243.574219 Z M 240.554688 134.476562 C 226.386719 120.3125 207.550781 112.507812 187.515625 112.507812 C 184.449219 112.507812 181.40625 112.691406 178.410156 113.054688 L 178.410156 243.574219 C 151.40625 239.203125 130.722656 215.730469 130.722656 187.515625 C 130.722656 164.710938 144.230469 145.011719 163.667969 135.980469 L 163.667969 116.363281 C 152.789062 119.996094 142.824219 126.132812 134.476562 134.476562 C 120.3125 148.644531 112.507812 167.480469 112.507812 187.515625 C 112.507812 207.550781 120.3125 226.386719 134.476562 240.554688 C 148.644531 254.71875 167.480469 262.523438 187.515625 262.523438 C 207.550781 262.523438 226.386719 254.71875 240.554688 240.554688 C 254.71875 226.386719 262.523438 207.550781 262.523438 187.515625 C 262.523438 167.480469 254.71875 148.644531 240.554688 134.476562 " fill-opacity="1" fill-rule="nonzero"/></g></svg>